<?xml version="1.0" encoding="utf-8"?>
<!-- Generator: Adobe Illustrator 19.0.0, SVG Export Plug-In . SVG Version: 6.00 Build 0)  -->
<svg version="1.1" id="Layer_1" xmlns="http://www.w3.org/2000/svg" xmlns:xlink="http://www.w3.org/1999/xlink" x="0px" y="0px"
	 viewBox="0 0 116 108" style="enable-background:new 0 0 116 108;" xml:space="preserve">
<style type="text/css">
	.st0{fill:none;}
	.st1{fill:#F7BC60;}
	.st2{fill:#FFFFFF;}
	.st3{fill:#FED8AD;}
	.st4{fill:#F68A33;}
</style>
<circle class="st3" cx="58.1" cy="54.1" r="54.1"/>
<g>
	<path class="st4" d="M80.6,35.2c-1.3,1.4-3.6,1.5-5,0.1c-1.4-1.3-1.5-3.6-0.1-5c1.3-1.4,3.6-1.5,5-0.2
		C81.8,31.5,81.9,33.8,80.6,35.2 M45.2,27.1c-0.7-0.7-1.8-0.6-2.5,0.1c-0.7,0.7-0.6,1.8,0.1,2.5c0.7,0.7,1.8,0.6,2.5-0.1
		C45.9,28.9,45.9,27.8,45.2,27.1z M54.1,23.8C53.2,23,51.8,23,51,23.9c-0.8,0.9-0.8,2.2,0.1,3.1c0.9,0.8,2.2,0.8,3.1-0.1
		C55,26,54.9,24.6,54.1,23.8z M63.6,23.1c-1.1-1-2.8-1-3.9,0.1c-1,1.1-1,2.8,0.1,3.9c1.1,1,2.8,1,3.9-0.1
		C64.7,25.9,64.7,24.1,63.6,23.1z M72.6,25.4c-1.3-1.2-3.2-1.1-4.4,0.1c-1.2,1.2-1.1,3.2,0.1,4.4c1.2,1.2,3.2,1.1,4.4-0.1
		C73.9,28.5,73.8,26.5,72.6,25.4z M37.7,33.1c-0.5-0.5-1.4-0.5-1.8,0.1c-0.5,0.5-0.5,1.3,0.1,1.8c0.5,0.5,1.4,0.5,1.8-0.1
		C38.2,34.4,38.2,33.6,37.7,33.1z M83.1,65.2c-0.7,0.7-0.6,1.8,0.1,2.5c0.7,0.7,1.8,0.6,2.5-0.1c0.7-0.7,0.6-1.8-0.1-2.5
		C84.9,64.5,83.8,64.5,83.1,65.2z M85.3,56.2c-0.8,0.9-0.8,2.2,0.1,3.1c0.9,0.8,2.2,0.8,3.1-0.1c0.8-0.9,0.8-2.2-0.1-3.1
		C87.5,55.3,86.2,55.3,85.3,56.2z M84.6,46.7c-1,1.1-1,2.8,0.1,3.9c1.1,1,2.8,1,3.9-0.1c1-1.1,1-2.8-0.1-3.9
		C87.4,45.5,85.7,45.6,84.6,46.7z M81.3,37.9c-1.2,1.2-1.1,3.2,0.1,4.4c1.2,1.2,3.2,1.1,4.4-0.1c1.2-1.2,1.1-3.2-0.1-4.4
		C84.5,36.6,82.5,36.6,81.3,37.9z M78.3,73.1c-0.5,0.5-0.5,1.4,0.1,1.8c0.5,0.5,1.3,0.5,1.8-0.1c0.5-0.5,0.5-1.3-0.1-1.8
		C79.6,72.5,78.8,72.6,78.3,73.1z M40.6,77.6c1.3-1.4,1.3-3.7-0.1-5c-1.4-1.3-3.7-1.3-5,0.1c-1.3,1.4-1.3,3.7,0.2,5
		C37,79.1,39.3,79.1,40.6,77.6z M32.9,42.7c0.7-0.7,0.6-1.8-0.1-2.5c-0.7-0.7-1.8-0.6-2.5,0.1c-0.7,0.7-0.6,1.8,0.1,2.5
		C31.1,43.5,32.3,43.4,32.9,42.7z M30.7,51.8c0.8-0.9,0.8-2.2-0.1-3.1c-0.9-0.8-2.3-0.8-3.1,0.1c-0.8,0.9-0.8,2.2,0.1,3
		C28.5,52.7,29.8,52.6,30.7,51.8z M31.4,61.3c1-1.1,1-2.8-0.1-3.9c-1.1-1-2.8-1-3.9,0.1c-1,1.1-1,2.8,0.1,3.9
		C28.6,62.5,30.3,62.4,31.4,61.3z M34.7,70.1c1.2-1.2,1.1-3.2-0.1-4.4c-1.2-1.2-3.2-1.1-4.4,0.1c-1.2,1.2-1.1,3.2,0.1,4.4
		C31.6,71.4,33.5,71.4,34.7,70.1z M70.8,80.8c0.7,0.7,1.8,0.6,2.5-0.1c0.7-0.7,0.6-1.8-0.1-2.5c-0.7-0.7-1.8-0.6-2.5,0.1
		C70.1,79.1,70.1,80.2,70.8,80.8z M61.9,84.2c0.9,0.8,2.2,0.8,3.1-0.1c0.8-0.9,0.8-2.2-0.1-3c-0.9-0.8-2.2-0.8-3.1,0.1
		C61,82,61.1,83.4,61.9,84.2z M52.4,84.9c1.1,1,2.8,1,3.9-0.1c1-1.1,1-2.8-0.1-3.9c-1.1-1-2.8-1-3.9,0.1
		C51.3,82.1,51.3,83.9,52.4,84.9z M43.4,82.6c1.2,1.2,3.2,1.1,4.4-0.1c1.2-1.2,1.1-3.2-0.1-4.4c-1.2-1.2-3.2-1.1-4.4,0.1
		C42.1,79.5,42.2,81.4,43.4,82.6z M66.8,33.8c-0.4,1.5-2,2.3-3.4,1.9c-1.5-0.4-2.3-2-1.9-3.4c0.4-1.5,2-2.3,3.4-1.9
		C66.4,30.8,67.3,32.3,66.8,33.8z M40.3,40.3c-0.7-0.2-1.5,0.2-1.7,0.9c-0.2,0.7,0.2,1.5,0.9,1.7c0.7,0.2,1.5-0.2,1.7-0.9
		C41.5,41.3,41.1,40.6,40.3,40.3z M45.1,35.1c-0.9-0.3-1.8,0.3-2.1,1.1c-0.3,0.9,0.2,1.8,1.1,2.1c0.9,0.3,1.8-0.3,2.1-1.1
		C46.5,36.3,46,35.3,45.1,35.1z M51.3,31.3c-1.1-0.3-2.3,0.3-2.7,1.4c-0.3,1.1,0.3,2.3,1.5,2.7c1.1,0.3,2.3-0.3,2.7-1.4
		C53,32.9,52.4,31.7,51.3,31.3z M58.1,29.8c-1.3-0.4-2.6,0.4-3,1.6c-0.4,1.3,0.3,2.6,1.6,3c1.3,0.4,2.6-0.4,3-1.6
		C60.1,31.5,59.3,30.2,58.1,29.8z M37.3,46.9c-0.5-0.2-1.1,0.2-1.3,0.7c-0.2,0.5,0.1,1.1,0.7,1.3c0.5,0.2,1.1-0.2,1.3-0.7
		C38.2,47.6,37.9,47,37.3,46.9z M78.6,53c-0.2,0.7,0.2,1.5,0.9,1.7c0.7,0.2,1.5-0.2,1.7-0.9c0.2-0.7-0.2-1.5-0.9-1.7
		C79.5,51.9,78.8,52.3,78.6,53z M77,46.2c-0.3,0.9,0.3,1.8,1.1,2.1c0.9,0.3,1.8-0.2,2.1-1.1c0.3-0.9-0.2-1.8-1.1-2.1
		C78.2,44.8,77.2,45.3,77,46.2z M73.3,40c-0.3,1.1,0.3,2.3,1.4,2.7c1.1,0.3,2.3-0.3,2.7-1.5c0.3-1.1-0.3-2.3-1.5-2.6
		C74.8,38.3,73.6,38.9,73.3,40z M68,35.3c-0.4,1.3,0.4,2.6,1.6,3c1.3,0.4,2.6-0.4,3-1.6c0.4-1.3-0.3-2.6-1.6-3
		C69.8,33.3,68.4,34,68,35.3z M78,59.9c-0.1,0.5,0.2,1.1,0.7,1.3c0.6,0.2,1.1-0.1,1.3-0.7c0.2-0.5-0.1-1.1-0.7-1.3
		C78.7,59,78.2,59.3,78,59.9z M54.5,75.8c0.4-1.5-0.4-3-1.9-3.4c-1.5-0.4-3,0.4-3.4,1.9c-0.4,1.5,0.4,3,1.9,3.4
		C52.5,78.1,54.1,77.2,54.5,75.8z M37.4,55c0.2-0.7-0.2-1.5-0.9-1.7c-0.7-0.2-1.5,0.2-1.7,0.9c-0.2,0.7,0.2,1.5,0.9,1.7
		C36.5,56.1,37.2,55.7,37.4,55z M39,61.8c0.3-0.9-0.3-1.8-1.1-2.1C37,59.5,36,60,35.8,60.9c-0.3,0.9,0.2,1.8,1.1,2.1
		C37.8,63.2,38.8,62.7,39,61.8z M42.7,68c0.3-1.1-0.3-2.3-1.5-2.7c-1.1-0.3-2.3,0.3-2.7,1.5c-0.3,1.1,0.3,2.3,1.4,2.7
		C41.2,69.7,42.4,69.1,42.7,68z M48,72.7c0.4-1.3-0.4-2.6-1.6-3c-1.3-0.4-2.6,0.4-3,1.6c-0.4,1.3,0.3,2.6,1.6,3
		C46.3,74.7,47.6,74,48,72.7z M75.7,67.7c0.7,0.2,1.5-0.2,1.7-0.9c0.2-0.7-0.2-1.5-0.9-1.7c-0.7-0.2-1.5,0.2-1.7,0.9
		C74.5,66.7,75,67.4,75.7,67.7z M70.9,72.9c0.9,0.3,1.8-0.3,2.1-1.1c0.3-0.9-0.2-1.8-1.1-2.1c-0.9-0.3-1.8,0.3-2.1,1.1
		C69.5,71.7,70,72.7,70.9,72.9z M64.7,76.7c1.1,0.3,2.3-0.3,2.7-1.5c0.3-1.1-0.3-2.3-1.5-2.7c-1.1-0.3-2.3,0.3-2.7,1.4
		C63,75.1,63.6,76.3,64.7,76.7z M58,78.2c1.3,0.4,2.6-0.3,3-1.6c0.4-1.3-0.3-2.6-1.6-3c-1.3-0.4-2.6,0.4-3,1.6
		C55.9,76.5,56.7,77.8,58,78.2z M52.3,38.9c0.6,1,0.2,2.3-0.9,2.9c-1.1,0.6-2.3,0.2-2.9-0.9c-0.6-1-0.2-2.3,0.9-2.9
		C50.5,37.5,51.8,37.9,52.3,38.9z M41.7,55.7c-0.6,0.3-0.8,1.1-0.5,1.7c0.3,0.6,1.1,0.8,1.7,0.5c0.6-0.3,0.9-1.1,0.5-1.7
		C43.1,55.6,42.3,55.4,41.7,55.7z M41.5,50.6c-0.7,0.4-1,1.3-0.6,2c0.4,0.7,1.3,1,2,0.6c0.7-0.4,1-1.3,0.6-2
		C43.1,50.4,42.2,50.2,41.5,50.6z M42.8,45.6c-0.8,0.4-1.1,1.5-0.7,2.3c0.4,0.8,1.5,1.1,2.3,0.7c0.8-0.4,1.1-1.5,0.7-2.3
		C44.7,45.5,43.7,45.2,42.8,45.6z M45.6,41.3c-0.9,0.5-1.3,1.6-0.8,2.6c0.5,0.9,1.6,1.3,2.5,0.8c0.9-0.5,1.3-1.7,0.8-2.6
		C47.6,41.2,46.5,40.8,45.6,41.3z M43.5,60.6c-0.5,0.3-0.7,0.9-0.4,1.4c0.3,0.5,0.9,0.7,1.4,0.4c0.5-0.3,0.7-0.9,0.4-1.4
		C44.6,60.6,44,60.4,43.5,60.6z M67.9,43c0.3,0.6,1.1,0.8,1.7,0.5c0.6-0.3,0.8-1.1,0.5-1.7c-0.3-0.6-1.1-0.8-1.7-0.5
		C67.8,41.7,67.6,42.4,67.9,43z M63.6,40.3c0.4,0.7,1.3,1,2,0.6c0.7-0.4,1-1.3,0.6-2c-0.4-0.7-1.3-1-2-0.6
		C63.5,38.7,63.2,39.6,63.6,40.3z M58.6,39c0.4,0.8,1.5,1.1,2.3,0.7c0.8-0.4,1.1-1.5,0.7-2.3c-0.4-0.8-1.5-1.1-2.3-0.7
		C58.5,37.1,58.2,38.2,58.6,39z M53.5,39.2c0.5,0.9,1.7,1.3,2.6,0.8c0.9-0.5,1.3-1.7,0.8-2.6c-0.5-0.9-1.6-1.3-2.6-0.8
		C53.3,37.1,53,38.3,53.5,39.2z M71.1,46.9c0.3,0.5,0.9,0.7,1.4,0.4c0.5-0.3,0.7-0.9,0.4-1.4c-0.3-0.5-0.9-0.7-1.4-0.4
		C71,45.8,70.8,46.4,71.1,46.9z M67.5,67c-0.6-1-1.9-1.5-2.9-0.9c-1,0.6-1.4,1.9-0.9,2.9c0.6,1,1.9,1.4,2.9,0.9
		C67.6,69.3,68,68,67.5,67z M48.1,64.9c-0.3-0.6-1.1-0.8-1.7-0.5c-0.6,0.3-0.8,1.1-0.5,1.7c0.3,0.6,1.1,0.8,1.7,0.5
		C48.2,66.3,48.4,65.5,48.1,64.9z M52.4,67.7c-0.4-0.7-1.3-1-2-0.6c-0.7,0.4-1,1.3-0.6,2c0.4,0.7,1.3,1,2,0.6
		C52.5,69.3,52.8,68.4,52.4,67.7z M57.4,69c-0.4-0.8-1.5-1.1-2.3-0.7c-0.8,0.4-1.1,1.5-0.7,2.3c0.5,0.8,1.5,1.1,2.3,0.7
		C57.5,70.8,57.8,69.8,57.4,69z M62.5,68.8C62,67.9,60.9,67.5,60,68c-0.9,0.5-1.2,1.6-0.7,2.6c0.5,0.9,1.6,1.3,2.6,0.8
		C62.7,70.8,63,69.7,62.5,68.8z M74.3,52.2c0.6-0.4,0.9-1.1,0.5-1.7c-0.3-0.6-1.1-0.8-1.7-0.5c-0.6,0.3-0.9,1.1-0.5,1.7
		C72.9,52.3,73.7,52.6,74.3,52.2z M74.5,57.4c0.7-0.4,1-1.3,0.6-2c-0.4-0.7-1.3-1-2-0.6c-0.7,0.4-1,1.3-0.6,2
		C72.9,57.5,73.8,57.8,74.5,57.4z M73.2,62.4c0.8-0.5,1.1-1.5,0.7-2.3c-0.4-0.8-1.5-1.1-2.3-0.7c-0.8,0.4-1.1,1.5-0.7,2.3
		C71.3,62.5,72.4,62.8,73.2,62.4z M70.5,66.6c0.9-0.5,1.3-1.6,0.8-2.6c-0.5-0.9-1.6-1.3-2.6-0.8c-0.9,0.5-1.3,1.7-0.8,2.6
		C68.4,66.8,69.5,67.2,70.5,66.6z M107.2,59.5c-3,0-5.5-2.5-5.5-5.5c0-3.1,2.5-5.5,5.5-5.5c3,0,5.5,2.4,5.5,5.5
		C112.7,57,110.2,59.5,107.2,59.5z M85.6,12c0.4-1.7-0.7-3.3-2.3-3.6c-1.6-0.4-3.3,0.7-3.6,2.3c-0.4,1.6,0.7,3.3,2.3,3.6
		C83.6,14.7,85.2,13.6,85.6,12z M96.4,19.8c0.3-2-1.1-3.9-3.1-4.2c-2-0.3-3.9,1-4.2,3.1c-0.3,2,1.1,3.9,3.1,4.2
		C94.2,23.2,96.1,21.8,96.4,19.8z M105.2,29.9c0.3-2.5-1.6-4.8-4.1-5c-2.5-0.3-4.8,1.6-5,4.1c-0.3,2.5,1.6,4.8,4.1,5
		C102.7,34.2,104.9,32.4,105.2,29.9z M110.6,41.5c0.1-2.8-2-5.2-4.8-5.3c-2.8-0.2-5.2,2-5.3,4.8c-0.1,2.8,2,5.2,4.8,5.3
		C108.1,46.5,110.5,44.3,110.6,41.5z M60.2,4.8c0-1.2-1-2.2-2.2-2.2c-1.2,0-2.2,1-2.2,2.2C55.8,6,56.8,7,58,7
		C59.2,7,60.2,6,60.2,4.8z M82,93.6c-1.6,0.4-2.7,2-2.3,3.6c0.4,1.7,2,2.7,3.6,2.3c1.6-0.3,2.7-2,2.3-3.6
		C85.2,94.3,83.6,93.3,82,93.6z M92.2,85.2c-2,0.3-3.4,2.2-3.1,4.2c0.3,2,2.2,3.4,4.2,3.1c2-0.3,3.4-2.2,3.1-4.2
		C96.1,86.2,94.2,84.8,92.2,85.2z M100.1,74c-2.5,0.3-4.3,2.5-4.1,5c0.3,2.5,2.5,4.3,5,4.1c2.5-0.3,4.4-2.5,4.1-5
		C104.9,75.6,102.7,73.8,100.1,74z M105.3,61.7c-2.8,0.1-4.9,2.5-4.8,5.3c0.1,2.8,2.5,4.9,5.3,4.8c2.8-0.1,4.9-2.5,4.8-5.3
		C110.5,63.7,108.1,61.5,105.3,61.7z M58,101c-1.2,0-2.2,1-2.2,2.2c0,1.2,1,2.2,2.2,2.2c1.2,0,2.2-1,2.2-2.2
		C60.2,102,59.2,101,58,101z M8.8,59.5c3,0,5.5-2.5,5.5-5.5c0-3.1-2.5-5.5-5.5-5.5c-3,0-5.5,2.4-5.5,5.5C3.3,57,5.8,59.5,8.8,59.5z
		 M34,14.3c1.6-0.3,2.7-2,2.3-3.6c-0.3-1.7-2-2.7-3.6-2.3c-1.6,0.4-2.7,2-2.3,3.6C30.8,13.6,32.4,14.7,34,14.3z M23.8,22.8
		c2-0.3,3.4-2.2,3.1-4.2c-0.3-2-2.2-3.4-4.2-3.1c-2,0.3-3.4,2.2-3.1,4.2C19.9,21.8,21.8,23.2,23.8,22.8z M15.9,34
		c2.5-0.3,4.4-2.5,4.1-5c-0.3-2.5-2.5-4.4-5-4.1c-2.5,0.3-4.4,2.5-4.1,5C11.1,32.4,13.3,34.2,15.9,34z M10.7,46.3
		c2.8-0.1,4.9-2.5,4.8-5.3c-0.1-2.8-2.5-4.9-5.3-4.8c-2.8,0.1-4.9,2.5-4.8,5.3C5.5,44.3,7.9,46.5,10.7,46.3z M30.4,96
		c-0.4,1.7,0.7,3.3,2.3,3.6c1.6,0.4,3.3-0.7,3.6-2.3c0.3-1.6-0.7-3.3-2.3-3.6C32.4,93.3,30.8,94.3,30.4,96z M19.6,88.2
		c-0.3,2,1.1,3.9,3.1,4.2c2,0.3,3.9-1,4.2-3.1c0.3-2-1.1-3.9-3.1-4.2C21.8,84.8,19.9,86.2,19.6,88.2z M10.8,78.1
		c-0.3,2.5,1.6,4.8,4.1,5c2.5,0.3,4.8-1.5,5-4.1c0.3-2.5-1.6-4.8-4.1-5C13.3,73.8,11.1,75.6,10.8,78.1z M5.4,66.5
		c-0.1,2.8,2,5.2,4.8,5.3c2.8,0.1,5.2-2,5.3-4.8c0.1-2.8-2-5.2-4.8-5.3C7.9,61.5,5.5,63.7,5.4,66.5z M70.1,99.2
		c-1.3,0.3-2,1.6-1.7,2.9c0.3,1.3,1.6,2,2.9,1.7c1.3-0.3,2-1.6,1.7-2.9C72.7,99.6,71.4,98.9,70.1,99.2z M45.9,99.2
		c-1.3-0.3-2.6,0.4-2.9,1.7c-0.3,1.3,0.4,2.6,1.7,2.9c1.3,0.3,2.6-0.4,2.9-1.7C47.9,100.9,47.1,99.6,45.9,99.2z M73,7.1
		c0.3-1.3-0.4-2.6-1.7-2.9c-1.3-0.3-2.6,0.4-2.9,1.7c-0.3,1.3,0.4,2.6,1.7,2.9C71.4,9.1,72.7,8.3,73,7.1z M47.6,5.8
		c-0.3-1.3-1.6-2-2.9-1.7c-1.3,0.3-2,1.6-1.7,2.9c0.3,1.3,1.6,2,2.9,1.7C47.1,8.4,47.9,7.1,47.6,5.8z M95,42.7
		c-2.2,0.9-4.7-0.1-5.7-2.3c-0.9-2.2,0.1-4.7,2.3-5.6c2.2-0.9,4.7,0.1,5.6,2.2C98.2,39.3,97.2,41.8,95,42.7z M64.8,15.4
		c-0.3-1.3-1.5-2.1-2.8-1.9c-1.3,0.3-2.1,1.5-1.9,2.8c0.3,1.3,1.5,2.1,2.8,1.9C64.2,17.9,65,16.6,64.8,15.4z M75,17.6
		c-0.4-1.6-2-2.5-3.5-2.1c-1.5,0.4-2.5,2-2.1,3.5c0.4,1.5,2,2.5,3.5,2.1C74.4,20.7,75.4,19.1,75,17.6z M84.4,22.1
		c-0.6-1.9-2.6-2.9-4.5-2.4c-1.9,0.6-2.9,2.6-2.4,4.5c0.6,1.9,2.6,2.9,4.5,2.4C83.9,26,85,24,84.4,22.1z M91.9,28.8
		c-0.8-2.1-3-3.1-5.1-2.3c-2,0.8-3.1,3-2.3,5.1c0.8,2.1,3,3.1,5.1,2.3C91.6,33.1,92.6,30.8,91.9,28.8z M44.4,18
		c-0.4-0.9-1.4-1.3-2.3-0.9c-0.9,0.4-1.3,1.4-0.9,2.3c0.4,0.9,1.4,1.3,2.3,0.9C44.3,19.9,44.8,18.9,44.4,18z M87.5,75
		c-1.1,0.8-1.3,2.2-0.6,3.3c0.8,1.1,2.2,1.3,3.3,0.6c1.1-0.8,1.3-2.2,0.6-3.3C90,74.5,88.5,74.3,87.5,75z M92.2,65.8
		c-1.3,0.9-1.7,2.6-0.9,4c0.9,1.3,2.6,1.7,4,0.9c1.3-0.8,1.7-2.6,0.9-4C95.3,65.3,93.5,64.9,92.2,65.8z M94.4,55.3
		c-1.7,1-2.3,3.2-1.4,4.9c1,1.7,3.2,2.3,4.9,1.4c1.7-1,2.3-3.1,1.4-4.9C98.3,55,96.1,54.4,94.4,55.3z M94.3,44.9
		c-1.9,1-2.7,3.3-1.8,5.3c1,2,3.3,2.8,5.3,1.8c2-1,2.8-3.3,1.8-5.3C98.6,44.7,96.2,43.9,94.3,44.9z M72.5,87.7
		c-0.9,0.4-1.3,1.4-0.9,2.3c0.4,0.9,1.4,1.3,2.3,0.9c0.9-0.4,1.3-1.4,0.9-2.3C74.4,87.7,73.4,87.3,72.5,87.7z M24.4,73.2
		c2.2-0.9,3.2-3.5,2.2-5.7c-0.9-2.2-3.5-3.2-5.6-2.2c-2.2,0.9-3.2,3.5-2.2,5.7C19.7,73.1,22.2,74.1,24.4,73.2z M28.5,33
		c1.1-0.8,1.3-2.2,0.6-3.3c-0.8-1.1-2.2-1.3-3.3-0.6c-1.1,0.8-1.3,2.2-0.6,3.3C26,33.5,27.5,33.7,28.5,33z M23.8,42.2
		c1.3-0.8,1.7-2.6,0.9-4c-0.9-1.3-2.6-1.7-4-0.9c-1.3,0.9-1.7,2.6-0.9,4C20.7,42.7,22.5,43.1,23.8,42.2z M21.6,52.7
		c1.7-1,2.3-3.2,1.4-4.9c-1-1.7-3.2-2.3-4.9-1.4c-1.7,1-2.3,3.1-1.4,4.9C17.7,53,19.9,53.6,21.6,52.7z M21.7,63.1
		c2-1,2.8-3.3,1.8-5.3c-1-2-3.3-2.8-5.3-1.8c-1.9,1-2.8,3.3-1.8,5.3C17.4,63.3,19.8,64.1,21.7,63.1z M51.2,92.6
		c0.3,1.3,1.5,2.1,2.8,1.9c1.3-0.3,2.1-1.5,1.9-2.8c-0.3-1.3-1.5-2.1-2.8-1.9C51.8,90.1,51,91.4,51.2,92.6z M41,90.4
		c0.4,1.5,2,2.5,3.5,2.1c1.5-0.4,2.5-1.9,2.1-3.5c-0.4-1.5-2-2.5-3.5-2.1C41.6,87.3,40.6,88.9,41,90.4z M31.6,85.9
		c0.6,1.9,2.6,2.9,4.5,2.3c1.9-0.6,2.9-2.6,2.4-4.5c-0.6-1.9-2.6-2.9-4.5-2.4C32.1,82,31,84,31.6,85.9z M24.1,79.2
		c0.8,2.1,3,3.1,5.1,2.3c2.1-0.8,3.1-3,2.3-5.1c-0.8-2-3-3.1-5.1-2.3C24.4,74.9,23.4,77.2,24.1,79.2z M80.7,82.7
		c-0.8,0.6-0.9,1.8-0.3,2.6c0.6,0.8,1.8,0.9,2.6,0.3c0.8-0.6,0.9-1.8,0.3-2.6C82.7,82.2,81.5,82,80.7,82.7z M63.3,90.2
		c-1,0.1-1.7,1.1-1.6,2.1c0.1,1,1.1,1.7,2.1,1.6c1-0.2,1.7-1.1,1.6-2.1C65.3,90.7,64.3,90,63.3,90.2z M54.3,15.7
		c-0.1-1-1.1-1.7-2.1-1.6c-1,0.2-1.7,1.1-1.6,2.1c0.1,1,1.1,1.7,2.1,1.6C53.7,17.7,54.4,16.7,54.3,15.7z M35.6,22.7
		c-0.6-0.8-1.8-0.9-2.6-0.3c-0.8,0.6-0.9,1.8-0.3,2.6c0.6,0.8,1.8,0.9,2.6,0.3C36.1,24.7,36.3,23.5,35.6,22.7z"/>
</g>
</svg>
