<?xml version="1.0" encoding="utf-8"?>
<!-- Generator: Adobe Illustrator 22.0.1, SVG Export Plug-In . SVG Version: 6.00 Build 0)  -->
<svg version="1.1" id="Layer_1" xmlns="http://www.w3.org/2000/svg" xmlns:xlink="http://www.w3.org/1999/xlink" x="0px" y="0px"
	 viewBox="0 0 231.6 68.9" style="enable-background:new 0 0 231.6 68.9;" xml:space="preserve">
<style type="text/css">
	.st0{fill:#8A8E05;stroke:#BE8D31;stroke-width:0.25;stroke-miterlimit:10;}
	.st1{fill:#006D00;stroke:#BE8D31;stroke-width:0.25;stroke-miterlimit:10;}
	.st2{fill:#F60500;stroke:#BE8D31;stroke-width:0.25;stroke-miterlimit:10;}
	.st3{fill:#006D00;}
</style>
<g>
	<path class="st0" d="M33.7,55.9L33.7,55.9h1.2l0,0v-1.7l0,0l0.1-1.5l0,0l0.4-1.1l0.3-0.9l0,0l0.1-0.2v-0.1L35.5,50
		c0-0.1-0.1-0.1-0.2,0l-0.5,0.7l0,0L34.3,51l0,0h-0.6l0,0H33h-0.1l-0.4-0.4c0,0,0,0,0-0.1l-0.1-1c0-0.1-0.1-0.1-0.1-0.1h-0.5
		c-0.1,0-0.2-0.1-0.2-0.2l0.2-1.2l0,0l0.4-0.5l0.8-1.2v-0.1l-1.3-2.5c0-0.1-0.1-0.1-0.2,0l-0.4,0.4l0,0L29.8,45l0,0l-1.1,1
		c0,0,0,0,0,0.1l-0.1,1.5l0,0l0.3,0.8l0,0l1.6,1.7l0,0l2.3,2l0,0l0.8,1.6l0,0L33.7,55.9z M25.3,24.5v0.1L25,25.8c0,0,0,0,0,0.1
		l0.3,1.2c0,0,0,0.1,0.1,0.1l0.7,0.2h0.1l0.4-0.4c0,0,0,0,0-0.1l0.1-0.8l0,0l0.1-0.2l0.1-0.1l1,0.3l0,0v1.7l0,0l0,0l-0.2,2.1l0,0
		L28,31l0,0l3,4.1l1.9,2.4l1.4-0.3l0,0h1.3l0,0l1.3,0.3c0,0,0,0,0.1,0l0.9,0.9l0,0l0.4,0.8c0.1,0.1,0.1,0.3,0,0.4l-0.2,1l-0.2,1.2
		l-0.3,2v0.1l3.6,5.5c0,0,0,0,0,0.1l0.1,1.5c0,0,0,0,0,0.1l-0.9,1.5l0,0l-0.8,1.5l0,0l-0.1,1.5c0,0.1,0.1,0.1,0.1,0.1h3.7
		c0.2,0,0.4,0.2,0.4,0.4v2.4c0,0.1-0.1,0.1-0.1,0.1H25.5c-0.1,0-0.1,0-0.1-0.1v-2.3c0-0.2,0.2-0.4,0.4-0.4h3c0.1,0,0.2-0.1,0.1-0.2
		l-4.9-5l0,0l-0.5-1c0,0,0,0,0-0.1l-0.1-1.6l0,0l0.3-2.3c0-0.1,0.1-0.3,0.2-0.4l1.9-1.9l0.7-0.7l0.1-0.1l1.5-1.4l0,0l2-1.5L29.8,39
		l-1.5-2.7L27.1,34l0,0l-0.7-1.5l0,0l-0.5-0.7l0,0l-0.6-0.9l0,0l-0.4-0.4l0,0l0,0l-1-0.5l0,0l-0.7-0.8l0,0l-0.5-1l0,0l-0.3-1.4
		c0,0,0,0,0-0.1c0,0,0.2-1,0.3-1.3l0,0l1.3-1.1l0,0l0.7-0.2h0.1L25.3,24.5z"/>
	<path class="st0" d="M28,27.8v-1.7l3.6-3.6c0.1-0.1,0-0.2-0.1-0.2l0,0h-0.1l-2.2,2.2c-0.1,0.1-0.2,0-0.2-0.1v-0.1c0,0,0,0,0-0.1
		l2.4-2.4c0,0,0,0,0.1,0h1.6c0.1,0,0.1,0.1,0.1,0.1v0.7v0.1L28,27.8L28,27.8z"/>
	<path class="st0" d="M23.8,30.1l1.1,0.5l-0.2,0.2l-4.8,4.3l0,0l-1.1,0.3l0.4-1l0,0L23.8,30.1z"/>
</g>
<ellipse class="st1" cx="36.7" cy="20.1" rx="2.4" ry="2.3"/>
<g id="Layer_3">
	<path class="st1" d="M7.7,40l-1.8,3.4c-0.8-2.6-1.3-5.5-1.4-8.5l2.7-2.3c0,0.5,0,1.1,0,1.7C7.2,36.3,7.4,38.2,7.7,40z"/>
	<path class="st1" d="M4.9,43.5l-3.3-1.7c-0.5-2.4-0.8-4.9-0.8-7.4c0-0.8,0-1.5,0.1-2.3l2.6,3.1C3.7,38.2,4.1,41,4.9,43.5z"/>
	<path class="st1" d="M9.2,52.6L5.6,52c-1.7-2.7-2.9-5.7-3.7-8.7L3.7,44l0,0l0,0l0,0l1.6,0.9C6.4,47.9,7.7,50.4,9.2,52.6z"/>
	<path class="st1" d="M10.6,47.5l-0.8,4.1c-1.4-2.1-2.6-4.4-3.4-6.8l1.7-3.3C8.7,43.7,9.5,45.7,10.6,47.5z"/>
	<path class="st1" d="M16.3,58.3c-2.2-1.6-4-3.4-5.6-5.5l0.7-3.9c1.2,2,2.7,3.8,4.4,5.4l0,0L16.3,58.3z"/>
	<path class="st1" d="M24.3,62.6c-1.4-0.5-2.9-1.2-4.4-2c-0.9-0.5-1.7-1-2.5-1.5l-0.5-3.7c1.8,1.6,3.9,2.9,6.1,4L24.3,62.6z"/>
	<path class="st1" d="M34,65.9v2.4c-4.4-0.1-8.7-1-12.6-2.7l3.9-1.5C29.8,65.5,33.3,65.9,34,65.9z"/>
	<path class="st1" d="M34,61.9v3c-0.7-0.1-4.2-0.4-8.4-1.8L24.4,60C27.4,61.1,30.6,61.8,34,61.9z"/>
	<path class="st1" d="M23.8,63.5L20.1,65c-1.2-0.5-2.3-1.2-3.4-1.9c-1.3-0.8-2.6-1.7-3.7-2.7l3.9-0.5c0.9,0.6,1.8,1.1,2.7,1.6
		C20.9,62.3,22.4,62.9,23.8,63.5z"/>
	<path class="st1" d="M15.6,59L12,59.5c-0.5-0.4-1-0.9-1.5-1.4c-1.5-1.5-2.8-3.2-4-5l3.7,0.7l0,0C11.8,55.9,13.7,57.6,15.6,59z"/>
</g>
<path class="st1" d="M9.8,10.9c0,0,9.4-10.4,24.8-10.4c20.4,0,28.2,15.9,28.2,15.9c0.3,0.3,0.1,0.9-0.3,0.9H13
	C9.9,21.2,8,26,7.4,30.9l-3.6,3L1,30.5c0.3-2.8,1-5.5,2-8.2c1.4-3.7,3.4-7.2,6-10.2l0,0l0,0h42c-4.7-3.5-10.4-5.4-16.4-5.4
	c-5,0-9.9,1.3-14.2,3.9c-0.3,0.2-0.6,0.3-0.9,0.3H9.8L9.8,10.9z"/>
<path class="st2" d="M62.1,34.3c0,15.1-11.7,27.2-26.7,27.6v6.3c2.9-0.1,6-0.5,8.7-1.3l-0.3-1.6l5.4-2.3l1,1.4c2.6-1.3,5-3,7.1-5
	l-0.9-1.3l3.9-4.4l1.4,0.8c1.7-2.3,3.2-4.9,4.2-7.5l-1.5-0.9l1.7-5.6l1.7,0.2c0.4-2.2,0.6-4.3,0.6-6.6L62.1,34.3L62.1,34.3
	L62.1,34.3z M37.2,64.6c21-4.9,26-19.5,27.2-28.5l1.2-0.1c-3.2,25.9-28.4,29.7-28.4,29.7L37.2,64.6z"/>
<rect x="49.8" y="19.2" class="st2" width="4.6" height="2.7"/>
<rect x="49.8" y="23.4" class="st2" width="4.6" height="2.6"/>
<path class="st2" d="M68.8,29.2c0,0,0-2.7-0.5-4.4c0,0-1.3-4.3-3.7-5.4c-0.3-0.2-1.5-0.4-2.3,0c-4.6,2.4-5.4,4.7-5.5,5.5
	c0,0.1,0,0.3,0,0.4c0.4,1.2,1.8,1.6,1.8,1.6c1.7,0.6,3.6,0.2,4.1,0c0.1,0,0.2-0.1,0.2-0.1l2-1.5c1.3,0.6,1.6,3.9,1.6,3.9h-12v-1.8
	h-4.7v5.1h19V29.2 M63.8,24.1L63.8,24.1l-1,0.1h-0.9h-0.5L61,24.1L60.6,24l-0.3-0.2c-0.1-0.1-0.3-0.2-0.4-0.3l0,0
	c-0.1-0.1-0.1-0.2-0.2-0.3l0,0c0-0.1,0-0.2,0.1-0.3l0.2-0.3l0.2-0.2c0.1-0.1,0.3-0.2,0.5-0.2l0.6-0.1c0.1,0,0.3,0,0.4,0l0.4,0.1
	c0.1,0.1,0.1,0,0.2,0.1l0.5,0.3l0.2,0.2l0.5,0.4l0.1,0.1l0.3,0.5L64,24c0,0.1-0.1,0-0.1,0.1H63.8z"/>
<g>
	<g>
		<path class="st3" d="M83,26.8c0,1-0.3,1.9-0.9,2.7c-0.6,0.7-1.3,1.1-2.2,1.1h-1.6c-0.4-0.1-0.8-0.2-1.1-0.5
			c-0.7-0.6-1.1-1.7-1.1-3.3c0-2,0.6-3.4,1.7-4.4c0.7-0.6,1.4-0.9,2.1-0.9H83V26.8z M79.6,19.6l-1.5,1.9l-1.5-1.9l1.5-1.9L79.6,19.6
			z M80,26.8V24c-1,0.1-1.5,0.6-1.5,1.4c0,0.4,0.1,0.8,0.4,1.1C79.1,26.7,79.5,26.8,80,26.8z M82.6,19.6l-1.5,1.9l-1.5-1.9l1.5-1.9
			L82.6,19.6z M83,26.8h1v3.8h-1V26.8z"/>
		<path class="st3" d="M91.2,26.8c0,1-0.3,1.9-0.9,2.7c-0.6,0.7-1.3,1.1-2.2,1.1h-5v-3.8h1.1c0-2,0.6-3.4,1.7-4.4
			c0.7-0.6,1.4-0.9,2.1-0.9h3.1v5.3C91.1,26.8,91.2,26.8,91.2,26.8z M88.1,26.8V24c-1,0.1-1.5,0.6-1.5,1.4c0,0.4,0.1,0.8,0.4,1.1
			C87.3,26.7,87.6,26.8,88.1,26.8z M95.7,26.8c0,1-0.3,1.9-0.9,2.7s-1.3,1.1-2.2,1.1h-1.4v-3.8h1.4v-9.1h3L95.7,26.8L95.7,26.8z"/>
		<path class="st3" d="M97.1,26.8v-9.1h3v9.1h1.1v3.8h-1.1c-0.8,0-1.6-0.4-2.2-1.1C97.4,28.8,97.1,27.9,97.1,26.8z"/>
		<path class="st3" d="M109.4,26.9c0,1-0.3,1.9-0.9,2.7c-0.3,0.4-0.6,0.6-1,0.8s-0.7,0.3-1.2,0.3h-5.9v-3.8h4.7
			c-0.7-0.2-1.3-0.5-1.8-0.9c-1.2-0.8-1.8-1.7-1.8-2.6c0-1.2,0.5-1.8,1.5-1.8h0.1h0.2h6v5.3C109.3,26.9,109.4,26.9,109.4,26.9z
			 M105.9,19.6l-1.5,1.9l-1.5-1.9l1.5-1.9L105.9,19.6z M106.3,26.9v-2.8h-0.6c-0.3,0-0.6,0.1-0.7,0.2s-0.2,0.4-0.2,0.7
			C104.8,25.8,105.3,26.4,106.3,26.9z M108.9,19.6l-1.5,1.9l-1.5-1.9l1.5-1.9L108.9,19.6z"/>
		<path class="st3" d="M116.2,30.6h-1.9v-9.9l-1.3,0.6v-2.6l1.5-0.9h1.7C116.2,17.8,116.2,30.6,116.2,30.6z"/>
		<path class="st3" d="M121.7,24.3l0.3,0.3c-0.1,0.3-0.3,0.5-0.5,0.6s-0.5,0.2-0.8,0.2c-0.5,0-1-0.2-1.4-0.5s-0.7-0.7-0.9-1.3
			s-0.3-1.2-0.3-2l0,0c0-0.8,0.1-1.5,0.4-2.1c0.2-0.6,0.6-1,1-1.3s1-0.5,1.6-0.5s1.2,0.2,1.6,0.5c0.5,0.3,0.8,0.8,1,1.4
			s0.4,1.3,0.4,2.1l0,0c0,0.4,0,0.9-0.1,1.4s-0.2,1-0.4,1.6c0,0.1,0,0.2-0.1,0.2c0,0.1-0.1,0.2-0.1,0.2l-1.8,5.5h-2.1L121.7,24.3z
			 M121.9,22.7c0.2-0.3,0.3-0.7,0.3-1.2l0,0c0-0.5-0.1-0.9-0.3-1.1c-0.2-0.3-0.4-0.4-0.8-0.4c-0.3,0-0.6,0.1-0.8,0.4
			S120,21,120,21.5l0,0c0,0.5,0.1,0.9,0.3,1.2s0.5,0.4,0.8,0.4S121.7,23,121.9,22.7z"/>
		<path class="st3" d="M125.6,26.5l3.2-8.6h2.2l-3.1,8.5h4.6v2.3h-6.9V26.5z M129.7,23.1h1.9v7.5h-1.9V23.1z"/>
		<path class="st3" d="M135.5,30.3c-0.4-0.3-0.8-0.7-1.1-1.3s-0.4-1.3-0.5-2.1l0,0h1.9l0,0c0,0.5,0.2,0.8,0.3,1.1s0.4,0.4,0.8,0.4
			c0.3,0,0.6-0.1,0.8-0.4s0.3-0.7,0.3-1.2v-1.1c0-0.5-0.1-0.9-0.3-1.2c-0.2-0.3-0.4-0.4-0.7-0.4s-0.5,0.1-0.7,0.3
			c-0.2,0.2-0.3,0.4-0.4,0.7h-1.8v-7.3h5.5v2.3H136v2.3c0.1-0.2,0.3-0.3,0.6-0.4s0.5-0.2,0.8-0.2c0.5,0,1,0.2,1.4,0.5
			s0.7,0.8,0.9,1.3s0.3,1.3,0.3,2.1v1.1c0,0.8-0.1,1.5-0.4,2.1s-0.6,1-1,1.3s-1,0.5-1.6,0.5C136.4,30.8,135.9,30.6,135.5,30.3z"/>
		<path class="st3" d="M156.1,32.6c0,0.9-0.3,1.7-0.9,2.3s-1.3,1-2.2,1h-4c-0.9,0-1.6-0.3-2.2-0.9c-0.6-0.6-1.1-1.4-1.3-2.5
			c-0.1-0.6-0.2-1.3-0.2-2.1c0-1.2,0.1-2.4,0.4-3.5c0.3-1.2,0.8-2.2,1.4-3h2.9c-1.2,1.5-1.8,3.2-1.8,5.2c0,1.2,0.3,2.2,0.8,2.9h3.2
			c0.3,0,0.5-0.1,0.5-0.4c0-0.4-0.2-0.9-0.7-1.4s-1.1-0.9-1.7-1l1.5-3.3c0.2-0.5,0.7-1,1.2-1.4c0.7-0.4,1.4-0.6,2.1-0.6
			c0.6,0,1.1,0.1,1.7,0.4l0.3,2.7c-0.3-0.1-0.5-0.2-0.9-0.3c-0.1,0-0.3-0.1-0.4-0.1c-0.1,0-0.3,0-0.5,0c-0.7,0-1.4,0.2-1.9,0.6
			C155.2,29,156.1,30.7,156.1,32.6z M150.5,37.8l-1.5,1.9l-1.5-1.9l1.5-1.9L150.5,37.8z M152.8,37.8l-1.5,1.9l-1.5-1.9l1.5-1.9
			L152.8,37.8z"/>
		<path class="st3" d="M158.4,26.8v-9.1h3v9.1h1.1v3.8h-1.1c-0.8,0-1.6-0.4-2.2-1.1S158.4,27.9,158.4,26.8z"/>
		<path class="st3" d="M169.8,26.8c0,1-0.3,1.9-0.9,2.7c-0.6,0.7-1.3,1.1-2.2,1.1h-5v-3.8h1.1c0-2,0.6-3.4,1.7-4.4
			c0.7-0.6,1.4-0.9,2.1-0.9h3.1L169.8,26.8L169.8,26.8z M166.7,26.8V24c-1,0.1-1.5,0.6-1.5,1.4c0,0.4,0.1,0.8,0.4,1.1
			S166.3,26.8,166.7,26.8z"/>
		<path class="st3" d="M175.3,30.3c-0.5-0.3-0.9-0.7-1.1-1.2s-0.4-1.2-0.4-1.9V27c0-0.6,0.1-1.2,0.4-1.8s0.7-1,1.1-1.3
			c-0.4-0.2-0.7-0.6-1-1.1s-0.4-0.9-0.4-1.5V21c0-0.7,0.1-1.3,0.4-1.8s0.6-0.9,1.1-1.2s1-0.4,1.6-0.4s1.1,0.1,1.6,0.4
			s0.8,0.7,1.1,1.2s0.4,1.1,0.4,1.8v0.3c0,0.5-0.1,1-0.4,1.5s-0.6,0.8-1,1c0.5,0.3,0.9,0.7,1.1,1.3s0.4,1.2,0.4,1.8v0.2
			c0,0.7-0.1,1.3-0.4,1.9s-0.6,1-1.1,1.2s-1.1,0.4-1.7,0.4C176.4,30.8,175.8,30.6,175.3,30.3z M177.8,28.3c0.2-0.1,0.4-0.3,0.5-0.6
			c0.1-0.2,0.2-0.5,0.2-0.8v-0.1c0-0.3-0.1-0.5-0.2-0.8c-0.1-0.2-0.3-0.4-0.5-0.5s-0.4-0.2-0.7-0.2s-0.5,0.1-0.7,0.2
			s-0.4,0.3-0.5,0.5s-0.2,0.5-0.2,0.8v0.1c0,0.3,0.1,0.6,0.2,0.8c0.1,0.2,0.3,0.4,0.5,0.5s0.4,0.2,0.7,0.2S177.6,28.4,177.8,28.3z
			 M177.6,22.8c0.2-0.1,0.3-0.3,0.4-0.5s0.1-0.5,0.1-0.8v-0.1c0-0.3,0-0.5-0.1-0.7s-0.2-0.4-0.4-0.5S177.2,20,177,20
			s-0.4,0.1-0.6,0.2c-0.2,0.1-0.3,0.3-0.4,0.5s-0.1,0.4-0.1,0.7v0.1c0,0.3,0,0.5,0.1,0.7s0.2,0.4,0.4,0.5s0.4,0.2,0.6,0.2
			S177.5,22.9,177.6,22.8z"/>
		<path class="st3" d="M192.2,26.8c0,1-0.3,1.9-0.9,2.7c-0.6,0.7-1.3,1.1-2.2,1.1h-1.6c-0.4-0.1-0.8-0.2-1.1-0.5
			c-0.7-0.6-1.1-1.7-1.1-3.3c0-2,0.6-3.4,1.7-4.4c0.7-0.6,1.4-0.9,2.1-0.9h3.1V26.8z M188.8,19.6l-1.5,1.9l-1.5-1.9l1.5-1.9
			L188.8,19.6z M189.1,26.8V24c-1,0.1-1.5,0.6-1.5,1.4c0,0.4,0.1,0.8,0.4,1.1S188.6,26.8,189.1,26.8z M191.7,19.6l-1.5,1.9l-1.5-1.9
			l1.5-1.9L191.7,19.6z M192.2,26.8h1v3.8h-1V26.8z"/>
		<path class="st3" d="M204.1,30.6h-5.7c-0.3-0.8-0.7-1.5-1.2-2.2c-0.8,0.7-1.5,1.2-2,1.5c-0.9,0.5-1.9,0.7-2.8,0.7v-3.8h1
			c0.8,0,1.5-0.2,2.2-0.5c-0.1-0.2-0.3-0.4-0.5-0.6c-0.4-0.4-1-0.8-1.6-1l0.8-3.2h5.3c1.4,0,2.4,0.7,3,2.1c0.2,0.6,0.4,1.2,0.4,1.8
			v0.2v0.1c-0.3-0.2-0.6-0.2-1-0.2c-0.1,0-0.2,0-0.3,0s-0.2,0-0.2,0c-0.1,0-0.1,0-0.2,0c-0.1,0-0.2,0-0.3,0.1
			c-0.8,0.3-1.3,0.6-1.6,1h4.9v4H204.1z M197.6,25l0.6-0.4c0.4-0.2,0.8-0.4,1.1-0.5h-2.6C196.9,24.3,197.2,24.6,197.6,25z"/>
		<path class="st3" d="M211.3,26.8c0,1-0.3,1.9-0.9,2.7c-0.6,0.7-1.3,1.1-2.2,1.1h-5v-3.8h1.1c0-2,0.6-3.4,1.7-4.4
			c0.7-0.6,1.4-0.9,2.1-0.9h3.1L211.3,26.8L211.3,26.8z M208.2,26.8V24c-1,0.1-1.5,0.6-1.5,1.4c0,0.4,0.1,0.8,0.4,1.1
			S207.7,26.8,208.2,26.8z"/>
		<path class="st3" d="M212.7,26.8v-9.1h3v9.1h1.1v3.8h-1.1c-0.8,0-1.6-0.4-2.2-1.1S212.7,27.9,212.7,26.8z"/>
		<path class="st3" d="M226.2,26.8h0.9c0,1-0.3,1.9-0.9,2.7s-1.3,1.1-2.2,1.1h-8v-3.8h6.7c-0.2,0-0.3-0.1-0.5-0.3
			c0-0.1-0.1-0.1-0.1-0.2s0-0.2,0-0.3v-0.5c0-0.4-0.1-0.7-0.3-1s-0.5-0.4-0.8-0.4h-3.1v-2.5h4.2c0.8,0,1.6,0.4,2.2,1.1
			s0.9,1.6,0.9,2.7v0.2C225.1,26.4,225.5,26.8,226.2,26.8z M222.5,34.1L221,36l-1.5-1.9l1.5-1.9L222.5,34.1z"/>
	</g>
</g>
<g>
	<path class="st3" d="M76.5,42.6h1.4V47c0,0.7,0,1.1,0.1,1.3c0.1,0.3,0.2,0.6,0.4,0.8c0.2,0.2,0.5,0.3,0.9,0.3s0.7-0.1,0.9-0.3
		c0.2-0.2,0.3-0.4,0.4-0.7c0-0.3,0.1-0.7,0.1-1.4v-4.4h1.4v4.2c0,1,0,1.6-0.1,2s-0.2,0.7-0.4,1c-0.2,0.3-0.5,0.5-0.8,0.6
		c-0.3,0.2-0.8,0.2-1.3,0.2c-0.6,0-1.1-0.1-1.5-0.3s-0.6-0.4-0.8-0.7c-0.2-0.3-0.3-0.6-0.4-0.9c-0.1-0.5-0.1-1.1-0.1-2v-4.1
		C76.7,42.6,76.5,42.6,76.5,42.6z"/>
	<path class="st3" d="M83.3,50.6v-8h1.3l2.8,5.3v-5.3h1.3v8h-1.4l-2.7-5.2v5.2H83.3z"/>
	<path class="st3" d="M90.1,50.6v-8h1.4v8H90.1z"/>
	<path class="st3" d="M94.4,50.6l-2.4-8h1.5l1.7,5.9l1.7-5.9h1.4l-2.4,8H94.4z"/>
	<path class="st3" d="M99,50.6v-8h5V44h-3.6v1.8h3.4v1.3h-3.4v2.2h3.8v1.3H99z"/>
	<path class="st3" d="M105.3,50.6v-8h2.9c0.7,0,1.2,0.1,1.6,0.2c0.3,0.1,0.6,0.4,0.8,0.8c0.2,0.4,0.3,0.8,0.3,1.3
		c0,0.6-0.1,1.1-0.4,1.5s-0.7,0.6-1.3,0.7c0.3,0.2,0.5,0.4,0.7,0.7s0.5,0.7,0.8,1.3l0.8,1.6h-1.6l-1-1.7c-0.3-0.6-0.6-1-0.7-1.2
		s-0.3-0.3-0.4-0.3c-0.1-0.1-0.4-0.1-0.7-0.1h-0.3v3.3L105.3,50.6L105.3,50.6z M106.7,46h1c0.7,0,1.1,0,1.2-0.1
		c0.2-0.1,0.3-0.2,0.4-0.3c0.1-0.2,0.1-0.4,0.1-0.6c0-0.3-0.1-0.5-0.2-0.6c-0.1-0.2-0.3-0.3-0.5-0.3c-0.1,0-0.4,0-1,0h-1.1L106.7,46
		L106.7,46z"/>
	<path class="st3" d="M111.7,48l1.3-0.2c0.1,0.5,0.2,0.9,0.5,1.2c0.2,0.2,0.6,0.4,1,0.4s0.8-0.1,1-0.3s0.3-0.5,0.3-0.8
		c0-0.2,0-0.3-0.1-0.5c-0.1-0.1-0.3-0.2-0.5-0.3s-0.5-0.2-1.1-0.3c-0.7-0.2-1.2-0.5-1.5-0.8c-0.4-0.4-0.6-1-0.6-1.6
		c0-0.4,0.1-0.8,0.3-1.1c0.2-0.4,0.5-0.6,0.8-0.8c0.4-0.2,0.8-0.3,1.3-0.3c0.8,0,1.5,0.2,1.9,0.7c0.4,0.4,0.7,1,0.7,1.8l-1.4,0.1
		c-0.1-0.4-0.2-0.7-0.4-0.9c-0.2-0.2-0.5-0.3-0.9-0.3s-0.7,0.1-0.9,0.3c-0.1,0.1-0.2,0.3-0.2,0.5s0.1,0.3,0.2,0.5
		c0.2,0.2,0.6,0.3,1.2,0.5c0.7,0.2,1.2,0.4,1.5,0.6s0.6,0.5,0.7,0.8c0.2,0.3,0.3,0.8,0.3,1.3s-0.1,0.9-0.3,1.3
		c-0.2,0.4-0.5,0.7-0.9,0.9S115,51,114.4,51c-0.9,0-1.5-0.2-2-0.7S111.8,48.9,111.7,48z"/>
	<path class="st3" d="M118.3,50.6v-8h1.4v8H118.3z"/>
	<path class="st3" d="M122.5,50.6V44h-2v-1.3h5.4V44h-2v6.6H122.5z"/>
	<path class="st3" d="M126.7,50.6v-8h5V44h-3.6v1.8h3.4v1.3h-3.4v2.2h3.8v1.3H126.7z"/>
	<path class="st3" d="M136.5,46.3c-0.3-0.2-0.6-0.4-0.7-0.7c-0.2-0.3-0.2-0.6-0.2-1c0-0.6,0.2-1.1,0.5-1.5c0.4-0.4,0.8-0.6,1.5-0.6
		c0.6,0,1.1,0.2,1.5,0.6c0.4,0.4,0.5,0.9,0.5,1.5c0,0.4-0.1,0.7-0.2,1c-0.2,0.3-0.4,0.5-0.7,0.7c0.4,0.2,0.7,0.4,0.9,0.8
		c0.2,0.3,0.3,0.7,0.3,1.2c0,0.7-0.2,1.3-0.6,1.8c-0.4,0.5-0.9,0.7-1.6,0.7c-0.6,0-1.1-0.2-1.5-0.6c-0.5-0.5-0.7-1.1-0.7-1.8
		c0-0.4,0.1-0.8,0.3-1.2C135.8,46.8,136.1,46.5,136.5,46.3z M136.6,48.2c0,0.4,0.1,0.7,0.3,1c0.2,0.2,0.4,0.4,0.7,0.4
		s0.5-0.1,0.7-0.3s0.3-0.6,0.3-1s-0.1-0.7-0.3-0.9s-0.4-0.3-0.7-0.3s-0.5,0.1-0.7,0.4C136.7,47.6,136.6,47.9,136.6,48.2z
		 M136.7,44.8c0,0.3,0.1,0.5,0.2,0.7c0.1,0.2,0.3,0.3,0.6,0.3c0.2,0,0.4-0.1,0.6-0.3s0.2-0.4,0.2-0.7s-0.1-0.5-0.2-0.7
		c-0.1-0.2-0.3-0.3-0.6-0.3c-0.2,0-0.4,0.1-0.6,0.3C136.8,44.3,136.7,44.5,136.7,44.8z"/>
	<path class="st3" d="M143.5,50.6v-8h2l1.2,5.4l1.2-5.4h2v8h-1.3v-6.3l-1.3,6.3H146l-1.3-6.3v6.3H143.5z"/>
	<path class="st3" d="M157.4,50.6h-1.5l-0.6-1.8h-2.7l-0.6,1.8h-1.4l2.6-8h1.4L157.4,50.6z M154.9,47.5l-0.9-3l-0.9,3H154.9z"/>
	<path class="st3" d="M158.1,50.6v-8h1.4v8H158.1z"/>
	<path class="st3" d="M166.4,50.6h-1.3v-5.8c-0.5,0.5-1,0.9-1.7,1.2v-1.4c0.3-0.1,0.7-0.4,1.1-0.7c0.4-0.4,0.7-0.8,0.8-1.3h1
		L166.4,50.6L166.4,50.6z"/>
	<path class="st3" d="M168.3,48.8l1.2-0.2c0,0.3,0.1,0.5,0.2,0.7c0.1,0.1,0.3,0.2,0.5,0.2c0.3,0,0.5-0.1,0.7-0.4
		c0.2-0.3,0.3-0.9,0.4-1.8c-0.3,0.4-0.7,0.7-1.2,0.7s-1-0.2-1.4-0.7s-0.6-1.1-0.6-1.9c0-0.8,0.2-1.5,0.6-2c0.4-0.5,0.9-0.7,1.6-0.7
		c0.7,0,1.2,0.3,1.7,0.9s0.7,1.7,0.7,3.1c0,1.5-0.2,2.5-0.7,3.2s-1.1,1-1.8,1c-0.5,0-1-0.2-1.3-0.5
		C168.6,49.9,168.4,49.4,168.3,48.8z M171.3,45.4c0-0.5-0.1-0.9-0.3-1.1c-0.2-0.3-0.4-0.4-0.7-0.4c-0.2,0-0.4,0.1-0.6,0.3
		c-0.2,0.2-0.2,0.6-0.2,1.1s0.1,0.9,0.3,1.1c0.2,0.2,0.4,0.4,0.6,0.4c0.2,0,0.5-0.1,0.6-0.3C171.2,46.2,171.3,45.9,171.3,45.4z"/>
	<path class="st3" d="M176.1,50.6V49h-2.8v-1.3l2.9-5.1h1.1v5.1h0.8V49h-0.8v1.6H176.1z M176.1,47.7V45l-1.5,2.7H176.1z"/>
	<path class="st3" d="M178.8,48.6l1.3-0.2c0,0.3,0.1,0.6,0.3,0.8s0.4,0.3,0.6,0.3c0.3,0,0.5-0.1,0.7-0.4c0.2-0.3,0.3-0.6,0.3-1.2
		c0-0.5-0.1-0.9-0.3-1.1c-0.2-0.2-0.4-0.4-0.7-0.4c-0.4,0-0.7,0.2-1,0.6l-1-0.2l0.7-4.1h3.4v1.4h-2.4l-0.2,1.4
		c0.3-0.2,0.6-0.3,0.9-0.3c0.6,0,1.1,0.2,1.5,0.7s0.6,1.1,0.6,1.9c0,0.7-0.2,1.2-0.5,1.8c-0.4,0.7-1,1.1-1.8,1.1
		c-0.6,0-1.1-0.2-1.5-0.6S178.9,49.2,178.8,48.6z"/>
	<path class="st3" d="M190.1,47.7v-1.3h2.9v3.2c-0.3,0.3-0.7,0.6-1.2,0.9c-0.5,0.2-1.1,0.4-1.6,0.4c-0.7,0-1.3-0.2-1.8-0.5
		s-0.9-0.8-1.2-1.5s-0.4-1.4-0.4-2.1c0-0.8,0.1-1.6,0.4-2.2c0.3-0.6,0.7-1.1,1.3-1.5c0.4-0.3,1-0.4,1.6-0.4c0.8,0,1.5,0.2,2,0.6
		c0.5,0.4,0.8,1,0.9,1.7l-1.4,0.3c-0.1-0.4-0.3-0.7-0.5-0.9c-0.3-0.2-0.6-0.3-1-0.3c-0.6,0-1.1,0.2-1.4,0.7s-0.5,1.1-0.5,2
		s0.2,1.7,0.5,2.1c0.4,0.5,0.8,0.7,1.4,0.7c0.3,0,0.6-0.1,0.9-0.2c0.3-0.1,0.5-0.3,0.7-0.5v-1h-1.6L190.1,47.7L190.1,47.7z"/>
	<path class="st3" d="M194.2,42.6h1.4V47c0,0.7,0,1.1,0.1,1.3c0.1,0.3,0.2,0.6,0.4,0.8s0.5,0.3,0.9,0.3s0.7-0.1,0.9-0.3
		s0.3-0.4,0.4-0.7c0-0.3,0.1-0.7,0.1-1.4v-4.4h1.4v4.2c0,1,0,1.6-0.1,2s-0.2,0.7-0.4,1s-0.5,0.5-0.8,0.6c-0.3,0.2-0.8,0.2-1.3,0.2
		c-0.6,0-1.1-0.1-1.5-0.3s-0.6-0.4-0.8-0.7s-0.3-0.6-0.4-0.9c-0.1-0.5-0.1-1.1-0.1-2v-4.1C194.4,42.6,194.2,42.6,194.2,42.6z"/>
	<path class="st3" d="M201,50.6v-8h5V44h-3.6v1.8h3.4v1.3h-3.4v2.2h3.8v1.3H201z"/>
	<path class="st3" d="M207.4,50.6v-7.9h1.4v6.6h3.4v1.3C212.2,50.6,207.4,50.6,207.4,50.6z"/>
	<path class="st3" d="M213.1,50.6v-8h2l1.2,5.4l1.2-5.4h2v8h-1.3v-6.3l-1.3,6.3h-1.3l-1.3-6.3v6.3H213.1z"/>
	<path class="st3" d="M227,50.6h-1.5l-0.6-1.8h-2.7l-0.6,1.8h-1.4l2.6-8h1.4L227,50.6z M224.5,47.5l-0.9-3l-0.9,3H224.5z"/>
</g>
</svg>
