<?xml version="1.0" encoding="UTF-8"?>
<!-- Generator: Adobe Illustrator 22.0.1, SVG Export Plug-In . SVG Version: 6.00 Build 0)  --><svg version="1.1" id="Layer_1" x="0px" y="0px" viewBox="0 0 68.9 68.9" xml:space="preserve" sodipodi:docname="logo-univ-guelma No Text No Stroke.svg" inkscape:version="1.3.2 (091e20e, 2023-11-25, custom)" width="68.900002" height="68.900002" xmlns:inkscape="http://www.inkscape.org/namespaces/inkscape" xmlns:sodipodi="http://sodipodi.sourceforge.net/DTD/sodipodi-0.dtd" xmlns="http://www.w3.org/2000/svg" xmlns:svg="http://www.w3.org/2000/svg"><defs id="defs136"/><sodipodi:namedview id="namedview134" pagecolor="#ffffff" bordercolor="#000000" borderopacity="0.25" inkscape:showpageshadow="2" inkscape:pageopacity="0.0" inkscape:pagecheckerboard="0" inkscape:deskcolor="#d1d1d1" showgrid="false" inkscape:zoom="9.688081" inkscape:cx="25.856514" inkscape:cy="33.391546" inkscape:window-width="1920" inkscape:window-height="1046" inkscape:window-x="-12" inkscape:window-y="-12" inkscape:window-maximized="1" inkscape:current-layer="g440"/>
<style type="text/css" id="style2">
	.st0{fill:#8A8E05;stroke:#BE8D31;stroke-width:0.25;stroke-miterlimit:10;}
	.st1{fill:#006D00;stroke:#BE8D31;stroke-width:0.25;stroke-miterlimit:10;}
	.st2{fill:#F60500;stroke:#BE8D31;stroke-width:0.25;stroke-miterlimit:10;}
	.st3{fill:#006D00;}
</style>







<g id="g440"><rect style="display:none;fill:#000000;stroke:none;stroke-width:1.49982;stroke-opacity:1" id="rect1" width="69.15715" height="69.157135" x="-0.10321975" y="0.20643926" inkscape:label="DarkBG" ry="0"/><ellipse style="fill:#ffffff;fill-opacity:1;stroke:none;stroke-width:1.28001;stroke-opacity:1" id="path1" cx="34.681789" cy="34.42374" rx="34.268917" ry="34.42374" inkscape:label="WhiteCircle"/><g id="g10" style="stroke:none">
	<path class="st0" d="m 33.7,55.9 v 0 h 1.2 v 0 -1.7 0 L 35,52.7 v 0 l 0.4,-1.1 0.3,-0.9 v 0 l 0.1,-0.2 V 50.4 L 35.5,50 c 0,-0.1 -0.1,-0.1 -0.2,0 l -0.5,0.7 v 0 L 34.3,51 v 0 h -0.6 v 0 H 33 32.9 l -0.4,-0.4 c 0,0 0,0 0,-0.1 l -0.1,-1 c 0,-0.1 -0.1,-0.1 -0.1,-0.1 h -0.5 c -0.1,0 -0.2,-0.1 -0.2,-0.2 L 31.8,48 v 0 l 0.4,-0.5 0.8,-1.2 v -0.1 l -1.3,-2.5 c 0,-0.1 -0.1,-0.1 -0.2,0 l -0.4,0.4 v 0 L 29.8,45 v 0 l -1.1,1 c 0,0 0,0 0,0.1 l -0.1,1.5 v 0 l 0.3,0.8 v 0 l 1.6,1.7 v 0 l 2.3,2 v 0 l 0.8,1.6 v 0 z M 25.3,24.5 v 0.1 L 25,25.8 c 0,0 0,0 0,0.1 l 0.3,1.2 c 0,0 0,0.1 0.1,0.1 l 0.7,0.2 h 0.1 L 26.6,27 c 0,0 0,0 0,-0.1 l 0.1,-0.8 v 0 l 0.1,-0.2 0.1,-0.1 1,0.3 v 0 1.7 0 0 l -0.2,2.1 v 0 L 28,31 v 0 l 3,4.1 1.9,2.4 1.4,-0.3 v 0 h 1.3 v 0 l 1.3,0.3 c 0,0 0,0 0.1,0 l 0.9,0.9 v 0 l 0.4,0.8 c 0.1,0.1 0.1,0.3 0,0.4 l -0.2,1 -0.2,1.2 -0.3,2 v 0.1 l 3.6,5.5 c 0,0 0,0 0,0.1 l 0.1,1.5 c 0,0 0,0 0,0.1 l -0.9,1.5 v 0 l -0.8,1.5 v 0 l -0.1,1.5 c 0,0.1 0.1,0.1 0.1,0.1 h 3.7 c 0.2,0 0.4,0.2 0.4,0.4 v 2.4 c 0,0.1 -0.1,0.1 -0.1,0.1 H 25.5 c -0.1,0 -0.1,0 -0.1,-0.1 v -2.3 c 0,-0.2 0.2,-0.4 0.4,-0.4 h 3 c 0.1,0 0.2,-0.1 0.1,-0.2 l -4.9,-5 v 0 l -0.5,-1 c 0,0 0,0 0,-0.1 l -0.1,-1.6 v 0 l 0.3,-2.3 c 0,-0.1 0.1,-0.3 0.2,-0.4 l 1.9,-1.9 0.7,-0.7 0.1,-0.1 1.5,-1.4 v 0 l 2,-1.5 L 29.8,39 28.3,36.3 27.1,34 v 0 l -0.7,-1.5 v 0 l -0.5,-0.7 v 0 l -0.6,-0.9 v 0 l -0.4,-0.4 v 0 0 l -1,-0.5 v 0 l -0.7,-0.8 v 0 l -0.5,-1 v 0 l -0.3,-1.4 c 0,0 0,0 0,-0.1 0,0 0.2,-1 0.3,-1.3 v 0 L 24,24.3 v 0 l 0.7,-0.2 h 0.1 z" id="path4" style="stroke:none"/>
	<path class="st0" d="m 28,27.8 v -1.7 l 3.6,-3.6 c 0.1,-0.1 0,-0.2 -0.1,-0.2 v 0 h -0.1 l -2.2,2.2 c -0.1,0.1 -0.2,0 -0.2,-0.1 v -0.1 c 0,0 0,0 0,-0.1 l 2.4,-2.4 c 0,0 0,0 0.1,0 h 1.6 c 0.1,0 0.1,0.1 0.1,0.1 v 0.7 0.1 z" id="path6" style="stroke:none"/>
	<path class="st0" d="m 23.8,30.1 1.1,0.5 -0.2,0.2 -4.8,4.3 v 0 l -1.1,0.3 0.4,-1 v 0 z" id="path8" style="stroke:none"/>
</g><ellipse class="st1" cx="36.700001" cy="20.1" rx="2.4000001" ry="2.3" id="ellipse12" style="stroke:none"/><g id="Layer_3" style="stroke:none">
	<path class="st1" d="M 7.7,40 5.9,43.4 C 5.1,40.8 4.6,37.9 4.5,34.9 l 2.7,-2.3 c 0,0.5 0,1.1 0,1.7 0,2 0.2,3.9 0.5,5.7 z" id="path14" style="stroke:#ffffff;stroke-opacity:1"/>
	<path class="st1" d="M 4.9,43.5 1.6,41.8 C 1.1,39.4 0.8,36.9 0.8,34.4 c 0,-0.8 0,-1.5 0.1,-2.3 l 2.6,3.1 c 0.2,3 0.6,5.8 1.4,8.3 z" id="path16" style="stroke:#ffffff;stroke-opacity:1"/>
	<path class="st1" d="M 9.2,52.6 5.6,52 C 3.9,49.3 2.7,46.3 1.9,43.3 L 3.7,44 v 0 0 0 l 1.6,0.9 c 1.1,3 2.4,5.5 3.9,7.7 z" id="path18" style="stroke:#ffffff;stroke-opacity:1"/>
	<path class="st1" d="M 10.6,47.5 9.8,51.6 C 8.4,49.5 7.2,47.2 6.4,44.8 l 1.7,-3.3 c 0.6,2.2 1.4,4.2 2.5,6 z" id="path20" style="stroke:#ffffff;stroke-opacity:1"/>
	<path class="st1" d="m 16.3,58.3 c -2.2,-1.6 -4,-3.4 -5.6,-5.5 l 0.7,-3.9 c 1.2,2 2.7,3.8 4.4,5.4 v 0 z" id="path22" style="stroke:#ffffff;stroke-opacity:1"/>
	<path class="st1" d="m 24.3,62.6 c -1.4,-0.5 -2.9,-1.2 -4.4,-2 -0.9,-0.5 -1.7,-1 -2.5,-1.5 l -0.5,-3.7 c 1.8,1.6 3.9,2.9 6.1,4 z" id="path24" style="stroke:#ffffff;stroke-opacity:1"/>
	<path class="st1" d="m 34,65.9 v 2.4 c -4.4,-0.1 -8.7,-1 -12.6,-2.7 l 3.9,-1.5 c 4.5,1.4 8,1.8 8.7,1.8 z" id="path26" style="stroke:#ffffff;stroke-opacity:1"/>
	<path class="st1" d="m 34,61.9 v 3 C 33.3,64.8 29.8,64.5 25.6,63.1 L 24.4,60 c 3,1.1 6.2,1.8 9.6,1.9 z" id="path28" style="stroke:#ffffff;stroke-opacity:1"/>
	<path class="st1" d="M 23.8,63.5 20.1,65 C 18.9,64.5 17.8,63.8 16.7,63.1 15.4,62.3 14.1,61.4 13,60.4 l 3.9,-0.5 c 0.9,0.6 1.8,1.1 2.7,1.6 1.3,0.8 2.8,1.4 4.2,2 z" id="path30" style="stroke:#ffffff;stroke-opacity:1"/>
	<path class="st1" d="M 15.6,59 12,59.5 C 11.5,59.1 11,58.6 10.5,58.1 9,56.6 7.7,54.9 6.5,53.1 l 3.7,0.7 v 0 c 1.6,2.1 3.5,3.8 5.4,5.2 z" id="path32" style="stroke:#ffffff;stroke-opacity:1"/>
</g><path class="st1" d="m 9.8,10.9 c 0,0 9.4,-10.4 24.8,-10.4 20.4,0 28.2,15.9 28.2,15.9 0.3,0.3 0.1,0.9 -0.3,0.9 H 13 C 9.9,21.2 8,26 7.4,30.9 L 3.8,33.9 1,30.5 C 1.3,27.7 2,25 3,22.3 4.4,18.6 6.4,15.1 9,12.1 v 0 0 H 51 C 46.3,8.6 40.6,6.7 34.6,6.7 c -5,0 -9.9,1.3 -14.2,3.9 -0.3,0.2 -0.6,0.3 -0.9,0.3 z" id="path35" style="stroke:#ffffff;stroke-opacity:1"/><path class="st2" d="m 62.1,34.3 c 0,15.1 -11.7,27.2 -26.7,27.6 v 6.3 c 2.9,-0.1 6,-0.5 8.7,-1.3 l -0.3,-1.6 5.4,-2.3 1,1.4 c 2.6,-1.3 5,-3 7.1,-5 l -0.9,-1.3 3.9,-4.4 1.4,0.8 c 1.7,-2.3 3.2,-4.9 4.2,-7.5 l -1.5,-0.9 1.7,-5.6 1.7,0.2 c 0.4,-2.2 0.6,-4.3 0.6,-6.6 z M 37.2,64.6 c 21,-4.9 26,-19.5 27.2,-28.5 L 65.6,36 C 62.4,61.9 37.2,65.7 37.2,65.7 Z" id="path37" style="stroke:none;stroke-opacity:1;stroke-width:0.45;stroke-dasharray:none"/><rect x="49.077461" y="19.096781" class="st2" width="4.5999999" height="2.7" id="rect39" style="stroke:none"/><rect x="49.077461" y="23.29678" class="st2" width="4.5999999" height="2.5999999" id="rect41" style="stroke:none"/><path class="st2" d="m 68.077463,29.09678 c 0,0 0,-2.7 -0.5,-4.4 0,0 -1.3,-4.3 -3.7,-5.4 -0.3,-0.2 -1.5,-0.4 -2.3,0 -4.6,2.4 -5.4,4.7 -5.5,5.5 0,0.1 0,0.3 0,0.4 0.4,1.2 1.8,1.6 1.8,1.6 1.7,0.6 3.6,0.2 4.1,0 0.1,0 0.2,-0.1 0.2,-0.1 l 2,-1.5 c 1.3,0.6 1.6,3.9 1.6,3.9 h -12 v -1.8 h -4.7 v 5.1 h 19 v -3.3 m -5,-5.1 v 0 l -1,0.1 h -0.9 -0.5 l -0.4,-0.1 -0.4,-0.1 -0.3,-0.2 c -0.1,-0.1 -0.3,-0.2 -0.4,-0.3 v 0 c -0.1,-0.1 -0.1,-0.2 -0.2,-0.3 v 0 c 0,-0.1 0,-0.2 0.1,-0.3 l 0.2,-0.3 0.2,-0.2 c 0.1,-0.1 0.3,-0.2 0.5,-0.2 l 0.6,-0.1 c 0.1,0 0.3,0 0.4,0 l 0.4,0.1 c 0.1,0.1 0.1,0 0.2,0.1 l 0.5,0.3 0.2,0.2 0.5,0.4 0.1,0.1 0.3,0.5 0.1,0.2 c 0,0.1 -0.1,0 -0.1,0.1 z" id="path43" style="stroke:#ffffff;stroke-opacity:1"/></g>


</svg>